<?xml version="1.0" encoding="utf-8"?>
<!-- Generator: Adobe Illustrator 16.0.0, SVG Export Plug-In . SVG Version: 6.00 Build 0)  -->
<!DOCTYPE svg PUBLIC "-//W3C//DTD SVG 1.1//EN" "http://www.w3.org/Graphics/SVG/1.1/DTD/svg11.dtd">
<svg version="1.1" id="Layer_1" xmlns="http://www.w3.org/2000/svg" xmlns:xlink="http://www.w3.org/1999/xlink" x="0px" y="0px"
	 width="119.996px" height="120px" viewBox="0 0 119.996 120" enable-background="new 0 0 119.996 120" xml:space="preserve">
<radialGradient id="SVGID_1_" cx="464.9976" cy="-239.5" r="58.998" fx="499.6595" fy="-191.7579" gradientTransform="matrix(1 0 0 -1 -398.5 -170)" gradientUnits="userSpaceOnUse">
	<stop  offset="0" style="stop-color:#4099A8"/>
	<stop  offset="0.6939" style="stop-color:#2E7882"/>
	<stop  offset="1" style="stop-color:#005572"/>
</radialGradient>
<circle fill="url(#SVGID_1_)" stroke="#005572" stroke-width="2" stroke-miterlimit="10" cx="59.998" cy="60" r="58.998"/>
<linearGradient id="SVGID_2_" gradientUnits="userSpaceOnUse" x1="-286.8843" y1="-310.291" x2="-173.6196" y2="-310.291" gradientTransform="matrix(-0.7071 -0.7071 -0.7071 0.7071 -322.2196 116.5958)">
	<stop  offset="0" style="stop-color:#2E7882"/>
	<stop  offset="0.4235" style="stop-color:#005572"/>
	<stop  offset="1" style="stop-color:#003F57"/>
</linearGradient>
<circle fill="none" stroke="url(#SVGID_2_)" stroke-width="2" stroke-miterlimit="10" cx="59.998" cy="60" r="55.632"/>
<g>
	<path fill="#065A60" d="M46.758,47.51l-0.744,7.623c11.764,1.287,21.043,10.739,22.069,22.582l7.633-0.748
		C74.343,61.49,62.16,49.132,46.758,47.51z"/>
	<path fill="#065A60" d="M45.162,63.162L43.848,76.54c0.029,1.696,1.393,3.053,3.076,3.086l13.387-1.312
		C59.538,70.309,53.17,63.934,45.162,63.162z"/>
	<path fill="#065A60" d="M48.125,32.395l-0.742,7.62c19.115,1.781,34.303,16.962,36.072,36.083l7.627-0.744
		C88.979,52.595,70.876,34.484,48.125,32.395z"/>
</g>
<g>
	<path fill="#FFFFFF" d="M43.992,48.202l-0.745,7.623c11.764,1.285,21.043,10.737,22.069,22.581l7.633-0.749
		C71.578,62.184,59.395,49.824,43.992,48.202z"/>
	<path fill="#FFFFFF" d="M42.395,63.854l-1.312,13.379c0.029,1.695,1.391,3.053,3.076,3.086l13.385-1.313
		C56.771,70.999,50.403,64.626,42.395,63.854z"/>
	<path fill="#FFFFFF" d="M45.358,33.086l-0.742,7.62c19.116,1.781,34.301,16.962,36.073,36.083l7.625-0.744
		C86.212,53.287,68.11,35.176,45.358,33.086z"/>
</g>
</svg>
