<?xml version="1.0" encoding="utf-8"?>
<!-- Generator: Adobe Illustrator 16.0.0, SVG Export Plug-In . SVG Version: 6.00 Build 0)  -->
<!DOCTYPE svg PUBLIC "-//W3C//DTD SVG 1.1//EN" "http://www.w3.org/Graphics/SVG/1.1/DTD/svg11.dtd">
<svg version="1.1" id="Layer_1" xmlns="http://www.w3.org/2000/svg" xmlns:xlink="http://www.w3.org/1999/xlink" x="0px" y="0px"
	 width="119.995px" height="120px" viewBox="0 0 119.995 120" enable-background="new 0 0 119.995 120" xml:space="preserve">
<g>
	
		<radialGradient id="SVGID_1_" cx="50.7197" cy="47.7764" r="65.9442" gradientTransform="matrix(0.5228 0.8524 -0.8894 0.5455 66.6966 -21.5218)" gradientUnits="userSpaceOnUse">
		<stop  offset="0.0357" style="stop-color:#84BDC7"/>
		<stop  offset="0.9286" style="stop-color:#4099A8"/>
		<stop  offset="1" style="stop-color:#2E7882"/>
	</radialGradient>
	<circle fill="url(#SVGID_1_)" stroke="#005572" stroke-width="2" stroke-miterlimit="10" cx="59.998" cy="60" r="58.998"/>
	<circle fill="none" stroke="#32838E" stroke-miterlimit="10" cx="59.998" cy="60" r="55.632"/>
	<g>
		<g>
			<path fill="#065A60" d="M46.758,47.51l-0.744,7.623c11.764,1.287,21.043,10.739,22.07,22.582l7.633-0.748
				C74.344,61.49,62.16,49.132,46.758,47.51z"/>
			<path fill="#065A60" d="M45.162,63.162L43.848,76.54c0.029,1.696,1.393,3.053,3.076,3.086l13.387-1.312
				C59.538,70.308,53.17,63.934,45.162,63.162z"/>
			<path fill="#065A60" d="M48.125,32.395l-0.742,7.62c19.115,1.781,34.303,16.962,36.072,36.083l7.627-0.744
				C88.979,52.595,70.877,34.484,48.125,32.395z"/>
		</g>
		<g>
			<path fill="#FFFFFF" d="M43.992,48.202l-0.745,7.623C55.011,57.11,64.29,66.562,65.316,78.406l7.633-0.749
				C71.577,62.183,59.395,49.824,43.992,48.202z"/>
			<path fill="#FFFFFF" d="M42.395,63.854l-1.312,13.378c0.029,1.696,1.391,3.053,3.076,3.086l13.385-1.313
				C56.771,70.999,50.403,64.626,42.395,63.854z"/>
			<path fill="#FFFFFF" d="M45.358,33.086l-0.742,7.62c19.116,1.781,34.302,16.962,36.073,36.083l7.625-0.744
				C86.213,53.287,68.11,35.176,45.358,33.086z"/>
		</g>
	</g>
</g>
</svg>
