<?xml version="1.0" encoding="utf-8"?>
<!-- Generator: Adobe Illustrator 16.0.0, SVG Export Plug-In . SVG Version: 6.00 Build 0)  -->
<!DOCTYPE svg PUBLIC "-//W3C//DTD SVG 1.1//EN" "http://www.w3.org/Graphics/SVG/1.1/DTD/svg11.dtd">
<svg version="1.1" id="Layer_1" xmlns="http://www.w3.org/2000/svg" xmlns:xlink="http://www.w3.org/1999/xlink" x="0px" y="0px"
	 width="119.996px" height="120px" viewBox="0 0 119.996 120" enable-background="new 0 0 119.996 120" xml:space="preserve">
<radialGradient id="SVGID_1_" cx="66.4976" cy="69.5" r="58.998" fx="101.1596" fy="117.2421" gradientUnits="userSpaceOnUse">
	<stop  offset="0" style="stop-color:#4099A8"/>
	<stop  offset="0.6939" style="stop-color:#2E7882"/>
	<stop  offset="1" style="stop-color:#005572"/>
</radialGradient>
<circle fill="url(#SVGID_1_)" stroke="#005572" stroke-width="2" stroke-miterlimit="10" cx="59.998" cy="60" r="58.998"/>
<linearGradient id="SVGID_2_" gradientUnits="userSpaceOnUse" x1="98.8267" y1="290.459" x2="212.0903" y2="290.459" gradientTransform="matrix(-0.7071 -0.7071 0.7071 -0.7071 -35.461 375.3109)">
	<stop  offset="0" style="stop-color:#2E7882"/>
	<stop  offset="0.4235" style="stop-color:#005572"/>
	<stop  offset="1" style="stop-color:#003F57"/>
</linearGradient>
<circle fill="none" stroke="url(#SVGID_2_)" stroke-width="2" stroke-miterlimit="10" cx="59.998" cy="60" r="55.632"/>
<g>
	<path fill="#065A60" d="M57.538,92.802c-1.415,0.354-9.305,4.482-9.305,4.482l1.366-3.229l8.309-8.309
		c0,0-1.809-8.525-1.985-11.178c-0.176-2.652-0.924-13.301-0.924-13.301l-26.695,11.49l0.174-4.423c0,0,4.414-4.071,6.005-6.017
		c1.591-1.943,19.788-15.566,19.788-15.566s0.332-7.234,0.685-14.659c0.353-7.425,3.937-9.378,5.044-9.378
		c1.106,0,4.69,1.953,5.044,9.378c0.354,7.425,0.685,14.589,0.685,14.589S83.925,60.34,85.517,62.285
		c1.591,1.943,6.005,6.033,6.005,6.033l0.174,4.431L65,61.266c0,0-0.619,10.521-0.797,13.172
		c-0.177,2.651-1.856,11.052-1.856,11.052l8.309,8.309l1.237,3.358c0,0-7.955-4.064-9.369-4.418c0,0-1.633,1.226-2.525,1.226
		C59.105,93.963,57.538,92.802,57.538,92.802z"/>
</g>
<g>
	<path fill="#FFFFFF" d="M57.538,89.802c-1.415,0.354-9.305,4.482-9.305,4.482l1.366-3.229l8.309-8.309
		c0,0-1.809-8.525-1.985-11.178c-0.176-2.652-0.924-13.3-0.924-13.3l-26.695,11.49l0.174-4.423c0,0,4.414-4.071,6.005-6.016
		c1.591-1.944,19.788-15.567,19.788-15.567s0.332-7.234,0.685-14.659c0.353-7.425,3.937-9.378,5.044-9.378
		c1.106,0,4.69,1.953,5.044,9.378c0.354,7.425,0.685,14.589,0.685,14.589S83.925,57.34,85.517,59.285
		c1.591,1.943,6.005,6.033,6.005,6.033l0.174,4.431L65,58.265c0,0-0.619,10.521-0.797,13.172
		c-0.177,2.651-1.856,11.052-1.856,11.052l8.309,8.309l1.237,3.358c0,0-7.955-4.064-9.369-4.418c0,0-1.633,1.226-2.525,1.226
		C59.105,90.963,57.538,89.802,57.538,89.802z"/>
</g>
</svg>
