<?xml version="1.0" encoding="utf-8"?>
<!-- Generator: Adobe Illustrator 16.0.0, SVG Export Plug-In . SVG Version: 6.00 Build 0)  -->
<!DOCTYPE svg PUBLIC "-//W3C//DTD SVG 1.1//EN" "http://www.w3.org/Graphics/SVG/1.1/DTD/svg11.dtd">
<svg version="1.1" id="Layer_1" xmlns="http://www.w3.org/2000/svg" xmlns:xlink="http://www.w3.org/1999/xlink" x="0px" y="0px"
	 width="119.995px" height="120px" viewBox="0 0 119.995 120" enable-background="new 0 0 119.995 120" xml:space="preserve">
<g>
	
		<radialGradient id="SVGID_1_" cx="50.7197" cy="47.7764" r="65.9442" gradientTransform="matrix(0.5228 0.8524 -0.8894 0.5455 66.6966 -21.5218)" gradientUnits="userSpaceOnUse">
		<stop  offset="0.0357" style="stop-color:#84BDC7"/>
		<stop  offset="0.9286" style="stop-color:#4099A8"/>
		<stop  offset="1" style="stop-color:#2E7882"/>
	</radialGradient>
	<circle fill="url(#SVGID_1_)" stroke="#005572" stroke-width="2" stroke-miterlimit="10" cx="59.998" cy="60" r="58.998"/>
	<circle fill="none" stroke="#32838E" stroke-miterlimit="10" cx="59.998" cy="60" r="55.632"/>
	<g>
		<path fill="#065A60" d="M57.538,92.802c-1.415,0.354-9.305,4.482-9.305,4.482l1.366-3.229l8.309-8.309
			c0,0-1.809-8.526-1.985-11.178s-0.924-13.3-0.924-13.3l-26.695,11.49l0.174-4.423c0,0,4.414-4.071,6.005-6.016
			c1.591-1.944,19.788-15.567,19.788-15.567s0.332-7.234,0.685-14.659s3.937-9.378,5.044-9.378c1.106,0,4.69,1.953,5.044,9.378
			s0.685,14.589,0.685,14.589s18.196,13.658,19.788,15.603c1.591,1.944,6.005,6.033,6.005,6.033l0.174,4.431L64.999,61.265
			c0,0-0.619,10.521-0.797,13.173c-0.176,2.651-1.856,11.051-1.856,11.051l8.309,8.309l1.237,3.358c0,0-7.955-4.064-9.369-4.418
			c0,0-1.633,1.226-2.525,1.226C59.105,93.963,57.538,92.802,57.538,92.802z"/>
	</g>
	<g>
		<path fill="#FFFFFF" d="M57.538,89.802c-1.415,0.354-9.305,4.482-9.305,4.482l1.366-3.229l8.309-8.309
			c0,0-1.809-8.526-1.985-11.178s-0.924-13.3-0.924-13.3l-26.695,11.49l0.174-4.423c0,0,4.414-4.071,6.005-6.016
			c1.591-1.944,19.788-15.567,19.788-15.567s0.332-7.234,0.685-14.659s3.937-9.378,5.044-9.378c1.106,0,4.69,1.953,5.044,9.378
			s0.685,14.589,0.685,14.589s18.196,13.658,19.788,15.603c1.591,1.944,6.005,6.033,6.005,6.033l0.174,4.431L64.999,58.265
			c0,0-0.619,10.521-0.797,13.173c-0.176,2.651-1.856,11.051-1.856,11.051l8.309,8.309l1.237,3.358c0,0-7.955-4.064-9.369-4.418
			c0,0-1.633,1.226-2.525,1.226C59.105,90.963,57.538,89.802,57.538,89.802z"/>
	</g>
</g>
</svg>
