<?xml version="1.0" encoding="utf-8"?>
<!-- Generator: Adobe Illustrator 16.0.0, SVG Export Plug-In . SVG Version: 6.00 Build 0)  -->
<!DOCTYPE svg PUBLIC "-//W3C//DTD SVG 1.1//EN" "http://www.w3.org/Graphics/SVG/1.1/DTD/svg11.dtd">
<svg version="1.1" id="Layer_1" xmlns="http://www.w3.org/2000/svg" xmlns:xlink="http://www.w3.org/1999/xlink" x="0px" y="0px"
	 width="119.996px" height="120px" viewBox="0 0 119.996 120" enable-background="new 0 0 119.996 120" xml:space="preserve">
<radialGradient id="SVGID_1_" cx="66.4976" cy="69.5" r="58.998" fx="101.1596" fy="117.2421" gradientUnits="userSpaceOnUse">
	<stop  offset="0" style="stop-color:#4099A8"/>
	<stop  offset="0.6939" style="stop-color:#2E7882"/>
	<stop  offset="1" style="stop-color:#005572"/>
</radialGradient>
<circle fill="url(#SVGID_1_)" stroke="#005572" stroke-width="2" stroke-miterlimit="10" cx="59.998" cy="60" r="58.998"/>
<linearGradient id="SVGID_2_" gradientUnits="userSpaceOnUse" x1="98.8267" y1="290.459" x2="212.0903" y2="290.459" gradientTransform="matrix(-0.7071 -0.7071 0.7071 -0.7071 -35.461 375.3109)">
	<stop  offset="0" style="stop-color:#2E7882"/>
	<stop  offset="0.4235" style="stop-color:#005572"/>
	<stop  offset="1" style="stop-color:#003F57"/>
</linearGradient>
<circle fill="none" stroke="url(#SVGID_2_)" stroke-width="2" stroke-miterlimit="10" cx="59.998" cy="60" r="55.632"/>
<path fill="#065A60" d="M55.329,47.964h10.114c4.588,0,6.438,4.29,6.611,9.516c0.05-0.622,0.021-2.628,0.021-2.628
	c0-4.722-1.908-9.888-6.633-9.888H55.329c-4.724,0-6.787,4.904-6.787,9.626v0.652c0,0.478-0.155,1.025-0.122,1.511
	C48.719,52.329,50.925,47.964,55.329,47.964z"/>
<g>
	<path fill="#065A60" stroke="#065A60" stroke-miterlimit="10" d="M73.839,65.689c-2.662,0-4.82,2.021-5.09,4.609
		c-0.02-0.177-0.055-0.349-0.055-0.531c0-2.842,2.303-5.142,5.145-5.142c2.834,0,5.144,2.3,5.144,5.142
		c0,0.184-0.036,0.354-0.056,0.531C78.658,67.711,76.492,65.689,73.839,65.689z"/>
</g>
<g>
	<path fill="#065A60" stroke="#065A60" stroke-miterlimit="10" d="M47.506,65.689c-2.661,0-4.82,2.021-5.09,4.609
		c-0.019-0.177-0.054-0.349-0.054-0.531c0-2.842,2.302-5.142,5.144-5.142c2.835,0,5.144,2.3,5.144,5.142
		c0,0.184-0.036,0.354-0.055,0.531C52.326,67.711,50.16,65.689,47.506,65.689z"/>
</g>
<path fill="#FFFFFF" d="M78.542,58.429v-3.345c0-6.721-4.316-12.121-11.037-12.121h-1.199c0.01,0,0.236,0.739,0.236,0.66v-1.284
	c0-2.058-1.722-4.375-3.779-4.375h-4.41c-2.059,0-3.811,2.318-3.811,4.375v1.284c0,0.079,0.417-0.66,0.422-0.66h-0.647
	c-6.722,0-12.775,5.4-12.775,12.121v3.103c-3,0.465-5,2.883-5,5.495c0,2.606,0,11.635,0,11.635c0,3.244,2.661,5.647,5.902,5.647
	h0.098v3.492c0,2.526,2.475,4.576,5,4.576c2.527,0,5-2.05,5-4.576v-3.492h15v3.492c0,2.526,2.473,4.576,5,4.576
	c2.526,0,5-2.05,5-4.576v-3.492h1.528c3.244,0,5.472-2.403,5.472-5.647c0,0,0-8.84,0-11.635
	C84.542,60.884,81.542,58.889,78.542,58.429z M47.464,74.581c-2.849,0-5.151-2.304-5.151-5.146c0-2.846,2.303-5.147,5.151-5.147
	c2.841,0,5.15,2.303,5.15,5.147C52.615,72.277,50.305,74.581,47.464,74.581z M50.246,59.964c-1.723,0-1.704-2.11-1.704-3.831v-0.635
	c0-4.598,2.314-9.535,6.914-9.535h9.848c4.6,0,6.658,5.107,6.658,9.705v0.635c0,1.721,0.272,3.66-1.447,3.66L50.246,59.964
	L50.246,59.964z M73.856,74.585c-2.84,0-5.151-2.306-5.151-5.147c0-2.849,2.312-5.15,5.151-5.15c2.847,0,5.149,2.303,5.149,5.15
	C79.007,72.279,76.703,74.585,73.856,74.585z"/>
</svg>
