<?xml version="1.0" encoding="utf-8"?>
<!-- Generator: Adobe Illustrator 16.0.0, SVG Export Plug-In . SVG Version: 6.00 Build 0)  -->
<!DOCTYPE svg PUBLIC "-//W3C//DTD SVG 1.1//EN" "http://www.w3.org/Graphics/SVG/1.1/DTD/svg11.dtd">
<svg version="1.1" id="Layer_1" xmlns="http://www.w3.org/2000/svg" xmlns:xlink="http://www.w3.org/1999/xlink" x="0px" y="0px"
	 width="119.995px" height="120px" viewBox="0 0 119.995 120" enable-background="new 0 0 119.995 120" xml:space="preserve">
<g>
	
		<radialGradient id="SVGID_1_" cx="50.7197" cy="47.7764" r="65.9442" gradientTransform="matrix(0.5228 0.8524 -0.8894 0.5455 66.6966 -21.5218)" gradientUnits="userSpaceOnUse">
		<stop  offset="0.0357" style="stop-color:#84BDC7"/>
		<stop  offset="0.9286" style="stop-color:#4099A8"/>
		<stop  offset="1" style="stop-color:#2E7882"/>
	</radialGradient>
	<circle fill="url(#SVGID_1_)" stroke="#005572" stroke-width="2" stroke-miterlimit="10" cx="59.998" cy="60" r="58.998"/>
	<circle fill="none" stroke="#32838E" stroke-miterlimit="10" cx="59.998" cy="60" r="55.632"/>
	<path fill="#065A60" d="M66.252,28.964h-11.9c-5.556,0-8.81,5.82-8.81,11.376v4c0-5.556,3.254-11.376,8.81-11.376h11.9
		c5.557,0,9.29,5.82,9.29,11.376v-4C75.542,34.784,71.809,28.964,66.252,28.964z"/>
	<path fill="#065A60" stroke="#065A60" stroke-miterlimit="10" d="M47.927,65.859c2.498,0,4.537,1.903,4.791,4.339
		c0.018-0.167,0.051-0.329,0.051-0.5c0-2.674-2.172-4.839-4.842-4.839c-2.678,0-4.843,2.165-4.843,4.839
		c0,0.171,0.033,0.333,0.05,0.5C43.388,67.763,45.421,65.859,47.927,65.859z"/>
	<path fill="#065A60" stroke="#065A60" stroke-miterlimit="10" d="M72.735,65.856c2.505,0,4.539,1.904,4.792,4.342
		c0.018-0.167,0.051-0.329,0.051-0.5c0-2.677-2.167-4.842-4.843-4.842c-2.669,0-4.842,2.165-4.842,4.842
		c0,0.171,0.033,0.333,0.051,0.5C68.198,67.761,70.237,65.856,72.735,65.856z"/>
	<path fill="#FFFFFF" d="M68.182,23.964H52.205c-8.144,0-14.663,6.855-14.663,14.999v36.263c0,3.049,2.388,5.738,5.436,5.738h34.432
		c3.049,0,5.133-2.689,5.133-5.738V38.963C82.542,30.819,76.325,23.964,68.182,23.964z M47.927,74.536
		c-2.678,0-4.843-2.166-4.843-4.838c0-2.674,2.165-4.839,4.843-4.839c2.67,0,4.842,2.165,4.842,4.839
		C52.769,72.37,50.597,74.536,47.927,74.536z M48.058,54.964c-2.082,0-2.516-1.72-2.516-3.8V42.34c0-5.556,3.254-11.376,8.81-11.376
		h11.9c5.557,0,9.29,5.82,9.29,11.376v8.824c0,2.08-0.915,3.8-2.994,3.8H48.058z M72.735,74.538c-2.669,0-4.842-2.165-4.842-4.84
		c0-2.677,2.173-4.842,4.842-4.842c2.676,0,4.843,2.165,4.843,4.842C77.578,72.373,75.411,74.538,72.735,74.538z"/>
</g>
<path fill="#FFFFFF" d="M41.542,79.964h3.218l-4.104,16.718c-0.205,0.854,0.32,1.538,1.174,1.743
	c0.125,0.029,0.25-0.043,0.373-0.043c0.717,0,1.369-0.532,1.543-1.261l0.733-2.567c0.16,0.045,30.867-0.026,31.125-0.159
	l0.644,2.862c0.176,0.729,0.826,1.127,1.543,1.127c0.123,0,0.25-0.058,0.373-0.087c0.854-0.207,1.379-0.739,1.174-1.591
	l-4.104-16.742h2.308 M71.963,79.964l0.613,3H47.418l0.611-3H71.963z M45.583,89.964l0.918-3h27.167c0.115,0,0.743,3,0.743,3H45.583
	z"/>
</svg>
