<?xml version="1.0" encoding="utf-8"?>
<!-- Generator: Adobe Illustrator 16.0.0, SVG Export Plug-In . SVG Version: 6.00 Build 0)  -->
<!DOCTYPE svg PUBLIC "-//W3C//DTD SVG 1.1//EN" "http://www.w3.org/Graphics/SVG/1.1/DTD/svg11.dtd">
<svg version="1.1" id="Layer_1" xmlns="http://www.w3.org/2000/svg" xmlns:xlink="http://www.w3.org/1999/xlink" x="0px" y="0px"
	 width="119.996px" height="120px" viewBox="0 0 119.996 120" enable-background="new 0 0 119.996 120" xml:space="preserve">
<radialGradient id="SVGID_1_" cx="66.4976" cy="69.5" r="58.998" fx="101.1596" fy="117.2421" gradientUnits="userSpaceOnUse">
	<stop  offset="0" style="stop-color:#4099A8"/>
	<stop  offset="0.6939" style="stop-color:#2E7882"/>
	<stop  offset="1" style="stop-color:#005572"/>
</radialGradient>
<circle fill="url(#SVGID_1_)" stroke="#005572" stroke-width="2" stroke-miterlimit="10" cx="59.998" cy="60" r="58.998"/>
<linearGradient id="SVGID_2_" gradientUnits="userSpaceOnUse" x1="98.8267" y1="290.459" x2="212.0903" y2="290.459" gradientTransform="matrix(-0.7071 -0.7071 0.7071 -0.7071 -35.461 375.3109)">
	<stop  offset="0" style="stop-color:#2E7882"/>
	<stop  offset="0.4235" style="stop-color:#005572"/>
	<stop  offset="1" style="stop-color:#003F57"/>
</linearGradient>
<circle fill="none" stroke="url(#SVGID_2_)" stroke-width="2" stroke-miterlimit="10" cx="59.998" cy="60" r="55.632"/>
<path fill="#065A60" d="M66.251,28.964H54.352c-5.556,0-8.81,5.82-8.81,11.376v4c0-5.556,3.254-11.376,8.81-11.376h11.899
	c5.558,0,9.291,5.82,9.291,11.376v-4C75.542,34.784,71.809,28.964,66.251,28.964z"/>
<path fill="#065A60" stroke="#065A60" stroke-miterlimit="10" d="M47.927,65.859c2.498,0,4.537,1.902,4.791,4.339
	c0.018-0.167,0.051-0.329,0.051-0.5c0-2.675-2.172-4.839-4.842-4.839c-2.678,0-4.843,2.164-4.843,4.839
	c0,0.171,0.033,0.333,0.05,0.5C43.388,67.764,45.421,65.859,47.927,65.859z"/>
<path fill="#065A60" stroke="#065A60" stroke-miterlimit="10" d="M72.735,65.855c2.505,0,4.539,1.904,4.792,4.343
	c0.018-0.167,0.051-0.329,0.051-0.5c0-2.677-2.166-4.843-4.843-4.843c-2.669,0-4.842,2.166-4.842,4.843
	c0,0.171,0.032,0.333,0.051,0.5C68.199,67.762,70.237,65.855,72.735,65.855z"/>
<path fill="#FFFFFF" d="M68.182,23.964H52.205c-8.144,0-14.663,6.855-14.663,14.999v36.264c0,3.049,2.388,5.737,5.436,5.737H77.41
	c3.049,0,5.133-2.688,5.133-5.737V38.963C82.542,30.819,76.326,23.964,68.182,23.964z M47.927,74.536
	c-2.678,0-4.843-2.166-4.843-4.838c0-2.675,2.165-4.839,4.843-4.839c2.67,0,4.842,2.164,4.842,4.839
	C52.769,72.37,50.597,74.536,47.927,74.536z M48.058,54.964c-2.082,0-2.516-1.72-2.516-3.8V42.34c0-5.556,3.254-11.376,8.81-11.376
	h11.899c5.558,0,9.291,5.82,9.291,11.376v8.824c0,2.08-0.916,3.8-2.994,3.8H48.058z M72.735,74.538c-2.669,0-4.842-2.165-4.842-4.84
	c0-2.677,2.173-4.843,4.842-4.843c2.677,0,4.843,2.166,4.843,4.843C77.578,72.373,75.412,74.538,72.735,74.538z"/>
<path fill="#FFFFFF" d="M41.542,79.964h3.218l-4.104,16.718c-0.205,0.854,0.32,1.539,1.174,1.743
	c0.125,0.029,0.25-0.043,0.373-0.043c0.717,0,1.369-0.532,1.543-1.261l0.733-2.566c0.16,0.045,30.867-0.027,31.125-0.16l0.644,2.862
	c0.176,0.729,0.826,1.127,1.543,1.127c0.123,0,0.25-0.058,0.373-0.087c0.854-0.207,1.379-0.738,1.174-1.591l-4.104-16.742h2.309
	 M71.962,79.964l0.613,3H47.418l0.611-3H71.962z M45.583,89.964l0.918-3h27.167c0.115,0,0.744,3,0.744,3H45.583z"/>
</svg>
