<?xml version="1.0" encoding="utf-8"?>
<!-- Generator: Adobe Illustrator 16.0.0, SVG Export Plug-In . SVG Version: 6.00 Build 0)  -->
<!DOCTYPE svg PUBLIC "-//W3C//DTD SVG 1.1//EN" "http://www.w3.org/Graphics/SVG/1.1/DTD/svg11.dtd">
<svg version="1.1" id="Layer_1" xmlns="http://www.w3.org/2000/svg" xmlns:xlink="http://www.w3.org/1999/xlink" x="0px" y="0px"
	 width="119.995px" height="120px" viewBox="0 0 119.995 120" enable-background="new 0 0 119.995 120" xml:space="preserve">
<g>
	
		<radialGradient id="SVGID_1_" cx="50.7197" cy="47.7764" r="65.9442" gradientTransform="matrix(0.5228 0.8524 -0.8894 0.5455 66.6966 -21.5218)" gradientUnits="userSpaceOnUse">
		<stop  offset="0.0357" style="stop-color:#84BDC7"/>
		<stop  offset="0.9286" style="stop-color:#4099A8"/>
		<stop  offset="1" style="stop-color:#2E7882"/>
	</radialGradient>
	<circle fill="url(#SVGID_1_)" stroke="#005572" stroke-width="2" stroke-miterlimit="10" cx="59.998" cy="60" r="58.998"/>
	<circle fill="none" stroke="#32838E" stroke-miterlimit="10" cx="59.998" cy="60" r="55.632"/>
	<path fill="#065A60" d="M59.998,28.348c-13.808,0-25,11.193-25,25c0,5.581,1.829,10.734,4.919,14.895
		c4.556,6.132,20.081,22.339,20.081,22.339s15.526-16.207,20.081-22.34c3.09-4.159,4.919-9.313,4.919-14.894
		C84.998,39.541,73.806,28.348,59.998,28.348z M59.999,65.315c-6.61,0-11.968-5.358-11.968-11.968
		c0-6.61,5.358-11.968,11.968-11.968c6.609,0,11.968,5.357,11.968,11.968C71.967,59.957,66.608,65.315,59.999,65.315z"/>
	<path fill="#FFFFFF" d="M59.998,24.957c-13.808,0-25,11.193-25,25c0,5.58,1.829,10.733,4.919,14.895
		c4.556,6.132,20.081,22.339,20.081,22.339s15.526-16.207,20.081-22.34c3.09-4.16,4.919-9.313,4.919-14.894
		C84.998,36.15,73.806,24.957,59.998,24.957z M59.999,61.925c-6.61,0-11.968-5.359-11.968-11.968c0-6.61,5.358-11.968,11.968-11.968
		c6.609,0,11.968,5.357,11.968,11.968C71.967,56.566,66.608,61.925,59.999,61.925z"/>
</g>
</svg>
