<?xml version="1.0" encoding="utf-8"?>
<!-- Generator: Adobe Illustrator 16.0.0, SVG Export Plug-In . SVG Version: 6.00 Build 0)  -->
<!DOCTYPE svg PUBLIC "-//W3C//DTD SVG 1.1//EN" "http://www.w3.org/Graphics/SVG/1.1/DTD/svg11.dtd">
<svg version="1.1" id="Layer_1" xmlns="http://www.w3.org/2000/svg" xmlns:xlink="http://www.w3.org/1999/xlink" x="0px" y="0px"
	 width="119.996px" height="120px" viewBox="0 0 119.996 120" enable-background="new 0 0 119.996 120" xml:space="preserve">
<radialGradient id="SVGID_1_" cx="863.498" cy="544.5" r="58.998" fx="898.1599" fy="592.2421" gradientTransform="matrix(1 0 0 1 -797 -475)" gradientUnits="userSpaceOnUse">
	<stop  offset="0" style="stop-color:#4099A8"/>
	<stop  offset="0.6939" style="stop-color:#2E7882"/>
	<stop  offset="1" style="stop-color:#005572"/>
</radialGradient>
<circle fill="url(#SVGID_1_)" stroke="#005572" stroke-width="2" stroke-miterlimit="10" cx="59.998" cy="60" r="58.998"/>
<linearGradient id="SVGID_2_" gradientUnits="userSpaceOnUse" x1="-672.5957" y1="465.1201" x2="-559.332" y2="465.1201" gradientTransform="matrix(-0.7071 -0.7071 0.7071 -0.7071 -704.436 -46.6602)">
	<stop  offset="0" style="stop-color:#2E7882"/>
	<stop  offset="0.4235" style="stop-color:#005572"/>
	<stop  offset="1" style="stop-color:#003F57"/>
</linearGradient>
<circle fill="none" stroke="url(#SVGID_2_)" stroke-width="2" stroke-miterlimit="10" cx="59.998" cy="60" r="55.632"/>
<path fill="#065A60" d="M91.221,43.83c-2.076,0.921-4.309,1.543-6.65,1.823c2.391-1.433,4.227-3.702,5.092-6.406
	c-2.238,1.327-4.717,2.291-7.354,2.81c-2.113-2.25-5.123-3.657-8.453-3.657c-6.395,0-11.58,5.185-11.58,11.58
	c0,0.907,0.104,1.791,0.301,2.639c-9.624-0.483-18.157-5.093-23.868-12.099c-0.997,1.71-1.567,3.699-1.567,5.821
	c0,4.018,2.044,7.562,5.151,9.639c-1.898-0.061-3.685-0.582-5.245-1.449c-0.001,0.048-0.001,0.097-0.001,0.146
	c0,5.61,3.991,10.29,9.288,11.354c-0.971,0.265-1.994,0.406-3.05,0.406c-0.747,0-1.472-0.072-2.179-0.207
	c1.474,4.6,5.75,7.947,10.816,8.041c-3.963,3.105-8.956,4.957-14.381,4.957c-0.935,0-1.856-0.055-2.763-0.162
	c5.125,3.285,11.212,5.203,17.751,5.203c21.298,0,32.947-17.645,32.947-32.947c0-0.502-0.012-1.001-0.033-1.498
	C87.705,48.192,89.668,46.152,91.221,43.83z"/>
<path fill="#FFFFFF" d="M91.387,41.662c-2.078,0.921-4.309,1.543-6.652,1.823c2.391-1.433,4.229-3.702,5.092-6.406
	c-2.236,1.327-4.715,2.291-7.354,2.81c-2.111-2.25-5.121-3.657-8.451-3.657c-6.395,0-11.58,5.185-11.58,11.58
	c0,0.907,0.102,1.791,0.299,2.639c-9.623-0.483-18.156-5.093-23.867-12.099c-0.997,1.71-1.567,3.699-1.567,5.821
	c0,4.018,2.044,7.562,5.151,9.639c-1.898-0.061-3.685-0.582-5.245-1.449c-0.001,0.048-0.001,0.097-0.001,0.146
	c0,5.61,3.991,10.29,9.288,11.354c-0.971,0.265-1.994,0.406-3.05,0.406c-0.747,0-1.472-0.072-2.179-0.207
	c1.474,4.6,5.75,7.947,10.816,8.041c-3.963,3.105-8.956,4.957-14.381,4.957c-0.935,0-1.856-0.055-2.763-0.162
	c5.125,3.285,11.212,5.203,17.751,5.203c21.299,0,32.946-17.645,32.946-32.947c0-0.502-0.01-1.001-0.033-1.498
	C87.871,46.024,89.834,43.984,91.387,41.662z"/>
</svg>
